<?xml version="1.0" standalone="no"?>
<!DOCTYPE svg PUBLIC "-//W3C//DTD SVG 20010904//EN"
 "http://www.w3.org/TR/2001/REC-SVG-20010904/DTD/svg10.dtd">
<svg version="1.0" xmlns="http://www.w3.org/2000/svg"
 width="280.000000pt" height="280.000000pt" viewBox="0 0 280.000000 280.000000"
 preserveAspectRatio="xMidYMid meet">

<g transform="translate(0.000000,280.000000) scale(0.100000,-0.100000)"
fill="#000000" stroke="none">
<path d="M1412 2651 c-35 -96 -36 -101 -24 -101 4 0 13 14 19 30 8 22 18 30
36 30 21 0 26 -6 32 -36 4 -21 10 -33 15 -28 10 10 -28 194 -40 194 -3 0 -20
-40 -38 -89z m48 3 c0 -15 -6 -24 -15 -24 -17 0 -18 4 -9 37 8 29 24 20 24
-13z"/>
<path d="M1214 2717 c-2 -7 -1 -49 3 -93 l8 -79 37 -3 c56 -5 82 26 76 89 -6
63 -37 99 -85 99 -19 0 -36 -6 -39 -13z m84 -30 c48 -51 33 -118 -30 -133 -23
-5 -28 -3 -28 13 0 11 -3 48 -6 82 -7 60 -6 61 18 61 13 0 34 -10 46 -23z"/>
<path d="M1106 2673 c-14 -102 -17 -163 -8 -163 6 0 12 15 14 33 2 26 8 33 29
35 19 2 28 -3 37 -23 6 -14 16 -25 22 -25 6 0 -10 41 -35 90 -25 50 -47 90
-49 90 -2 0 -7 -17 -10 -37z m35 -44 c8 -17 8 -23 -2 -30 -19 -12 -27 -3 -21
26 5 30 8 31 23 4z"/>
<path d="M1708 2703 c-10 -3 -22 -20 -27 -41 -37 -139 -36 -133 -21 -142 8 -6
32 -10 53 -10 31 0 40 5 57 33 44 71 4 175 -62 160z m52 -42 c5 -11 10 -38 10
-60 0 -31 -6 -44 -27 -60 -23 -19 -54 -21 -71 -5 -2 1 4 34 14 73 16 61 21 71
41 71 12 0 27 -9 33 -19z"/>
<path d="M926 2648 c-30 -43 -8 -149 34 -169 8 -3 27 -12 43 -20 31 -14 34
-26 10 -46 -17 -12 -16 -13 7 -11 30 4 38 32 16 57 -15 16 -15 19 -1 31 17 14
20 56 6 65 -5 3 -11 -9 -13 -27 -3 -29 -6 -33 -33 -33 -24 0 -33 7 -47 35 -20
38 -23 87 -8 110 8 13 13 13 31 2 19 -12 21 -12 15 3 -3 9 -6 19 -6 21 0 14
-42 0 -54 -18z"/>
<path d="M1843 2607 c-12 -28 -29 -69 -37 -90 -16 -37 -16 -38 6 -46 52 -19
68 -22 68 -12 0 6 -6 11 -13 11 -7 0 -21 6 -30 13 -15 10 -16 17 -7 43 9 26
15 30 38 27 26 -4 26 -4 8 11 -17 13 -18 21 -10 44 6 16 16 25 25 23 8 -2 25
-6 39 -8 21 -3 20 -1 -10 16 -19 11 -39 20 -45 21 -5 0 -20 -24 -32 -53z"/>
<path d="M830 2600 c0 -6 14 -38 31 -72 l31 -62 -60 52 c-54 47 -89 66 -80 43
24 -64 76 -160 86 -161 8 0 2 21 -18 60 -16 33 -30 62 -30 66 0 4 20 -12 44
-34 47 -44 80 -64 89 -56 7 7 -75 174 -85 174 -5 0 -8 -5 -8 -10z"/>
<path d="M2072 2483 c-28 -42 -49 -80 -46 -85 9 -14 66 -40 72 -32 4 4 2 9 -4
11 -6 2 -19 10 -30 17 -17 13 -17 15 0 41 14 22 22 26 44 20 26 -6 26 -6 8 13
-17 19 -17 22 -1 46 20 30 28 32 45 11 7 -8 20 -15 29 -15 11 1 7 8 -14 25
-16 14 -35 25 -41 25 -6 0 -34 -35 -62 -77z"/>
<path d="M664 2494 c20 -79 49 -164 57 -164 11 0 11 3 0 33 -8 20 -6 29 10 43
18 17 20 16 44 -6 14 -13 28 -20 32 -16 8 8 -94 106 -131 127 -17 10 -18 8
-12 -17z m56 -39 c10 -12 10 -19 2 -27 -14 -14 -17 -11 -26 20 -8 25 5 29 24
7z"/>
<path d="M2163 2398 c-35 -42 -63 -79 -63 -82 0 -18 23 0 59 45 44 56 48 55
26 -6 -15 -43 -20 -105 -7 -104 7 0 113 134 120 151 2 4 0 8 -5 8 -4 0 -28
-25 -52 -55 -24 -30 -46 -54 -47 -52 -2 1 6 32 17 67 34 109 23 115 -48 28z"/>
<path d="M595 2383 c19 -37 33 -68 32 -69 -1 -2 -29 17 -61 42 -64 48 -66 49
-66 35 0 -17 154 -123 159 -110 6 18 -71 169 -86 169 -8 0 0 -24 22 -67z"/>
<path d="M2265 2300 c-71 -71 -86 -106 -21 -49 28 24 40 29 49 20 18 -18 29
-13 16 10 -9 18 -7 25 10 42 l21 21 25 -24 c35 -33 44 -16 10 20 -16 17 -31
30 -35 30 -3 0 -37 -31 -75 -70z"/>
<path d="M412 2343 c30 -67 91 -173 98 -173 14 0 12 12 -6 38 -15 21 -15 25 1
42 16 18 20 18 47 4 16 -9 32 -13 36 -10 7 8 9 6 -84 60 -80 45 -99 53 -92 39z
m72 -48 c10 -7 15 -18 11 -24 -10 -17 -21 -13 -33 14 -13 28 -6 31 22 10z"/>
<path d="M2342 2218 l-73 -61 28 -29 c35 -36 50 -36 24 1 l-20 28 24 23 c20
18 28 21 37 12 17 -17 31 -15 24 5 -4 10 2 25 16 40 l22 23 22 -27 c12 -16 25
-26 28 -22 7 7 -36 69 -49 68 -5 0 -43 -27 -83 -61z"/>
<path d="M700 2184 c0 -4 15 -27 34 -53 52 -72 94 -151 121 -231 14 -40 32
-82 41 -92 16 -17 14 -21 -33 -70 -97 -103 -140 -215 -130 -341 6 -85 60 -200
123 -264 51 -51 188 -142 224 -150 17 -3 35 -22 55 -56 20 -33 50 -64 87 -90
59 -40 76 -65 36 -52 -56 17 -118 17 -143 1 -43 -28 -69 -92 -69 -166 1 -142
53 -173 215 -130 41 11 79 20 85 20 6 0 14 -18 18 -39 9 -60 45 -96 95 -96 51
0 91 30 110 81 8 21 16 41 17 43 2 2 26 -6 53 -18 29 -12 71 -21 99 -21 44 0
53 4 80 34 40 46 56 97 49 163 -12 115 -59 146 -180 119 -39 -9 -72 -14 -75
-12 -13 14 12 56 48 81 23 16 56 53 73 84 26 44 44 61 91 85 32 17 88 56 125
86 55 46 74 71 111 144 45 88 45 88 45 195 0 93 -3 113 -26 161 -14 30 -49 83
-77 117 l-52 62 24 48 c14 27 35 80 46 119 12 39 42 106 66 149 47 83 51 95
31 95 -21 0 -102 -167 -126 -261 -13 -47 -31 -96 -42 -110 l-18 -24 -38 23
c-72 43 -178 91 -238 108 -83 22 -286 30 -383 14 -99 -16 -222 -61 -291 -106
-34 -23 -57 -32 -63 -26 -5 5 -27 58 -49 118 -22 60 -53 132 -71 159 -17 28
-38 62 -47 77 -14 24 -51 40 -51 22z m622 -484 c25 -7 51 -7 84 0 30 7 51 7
57 1 5 -5 15 -7 22 -5 6 3 17 -2 24 -10 10 -12 18 -13 32 -5 11 5 25 7 31 3 7
-4 8 -3 4 4 -10 17 53 15 84 -2 15 -9 32 -11 45 -6 27 10 96 -2 77 -14 -7 -4
-19 -5 -27 -2 -8 3 -17 0 -21 -6 -5 -7 -2 -8 7 -3 8 5 11 5 7 1 -3 -4 -10 -8
-15 -9 -4 0 -19 -6 -32 -13 -14 -7 -28 -11 -33 -8 -4 3 -8 0 -8 -5 0 -6 -7
-11 -15 -11 -8 0 -15 -7 -15 -15 0 -19 28 -19 75 1 20 8 40 13 43 10 3 -3 -1
-6 -8 -6 -7 0 -10 -3 -6 -7 4 -4 16 3 27 17 16 21 20 23 29 10 9 -12 10 -12 8
5 -4 24 35 29 71 7 13 -8 20 -9 17 -3 -11 18 9 13 38 -10 25 -20 37 -47 14
-33 -7 4 -8 3 -4 -5 4 -6 11 -9 16 -6 13 8 23 -40 17 -75 -4 -16 0 -44 7 -62
21 -48 1 -129 -27 -111 -6 3 -7 1 -3 -5 4 -6 -5 -19 -19 -28 -16 -10 -24 -23
-20 -33 8 -28 -33 -82 -75 -98 -22 -9 -42 -24 -45 -34 -11 -34 -61 -66 -116
-73 -69 -9 -132 -53 -167 -117 -15 -27 -33 -49 -40 -49 -7 0 -22 19 -32 43
-29 66 -67 96 -130 104 -43 5 -61 13 -87 40 -25 24 -43 33 -66 33 -34 0 -65
25 -100 83 -10 15 -26 27 -37 27 -11 0 -34 13 -52 29 -34 30 -33 26 -54 208
-6 50 -5 54 29 88 32 32 67 49 52 26 -3 -5 -1 -12 4 -16 6 -3 8 4 6 16 -5 25
28 72 53 76 23 3 53 -7 48 -16 -3 -4 3 -7 12 -8 31 -2 112 -35 107 -43 -3 -5
0 -12 6 -16 8 -4 9 -3 5 4 -5 8 2 12 19 12 42 0 24 22 -31 38 -27 8 -51 17
-54 21 -3 5 -18 11 -34 15 -15 4 -26 10 -23 13 3 3 20 0 38 -6 28 -10 35 -8
62 15 20 17 39 24 53 21 13 -2 21 0 18 4 -7 12 3 11 48 -1z"/>
<path d="M1485 1670 c3 -5 8 -10 11 -10 2 0 4 5 4 10 0 6 -5 10 -11 10 -5 0
-7 -4 -4 -10z"/>
<path d="M1666 1656 c3 -9 9 -16 13 -16 12 1 45 30 34 30 -7 0 -15 -5 -18 -10
-5 -8 -11 -7 -21 1 -12 10 -13 9 -8 -5z"/>
<path d="M1226 1632 c-2 -4 4 -8 14 -8 10 0 16 4 14 8 -3 4 -9 8 -14 8 -5 0
-11 -4 -14 -8z"/>
<path d="M963 1545 c0 -8 4 -12 9 -9 5 3 6 10 3 15 -9 13 -12 11 -12 -6z"/>
<path d="M1326 1508 c-9 -12 -16 -29 -16 -38 0 -49 68 -80 90 -41 35 67 -33
139 -74 79z"/>
<path d="M1512 1518 c-7 -7 -12 -28 -12 -48 0 -41 14 -60 45 -60 31 0 45 19
45 60 0 41 -14 60 -45 60 -12 0 -26 -5 -33 -12z"/>
<path d="M1666 1415 c-11 -8 -17 -17 -14 -20 2 -3 13 4 23 15 21 23 18 25 -9
5z"/>
<path d="M1495 1391 c-3 -5 -2 -12 3 -15 5 -3 9 1 9 9 0 17 -3 19 -12 6z"/>
<path d="M1673 1369 c-1 -12 -8 -26 -15 -30 -7 -5 -9 -9 -5 -9 4 0 -1 -9 -12
-21 -23 -25 -178 -79 -226 -79 -39 0 -42 -6 -20 -37 21 -30 77 -46 131 -38 54
8 115 63 144 129 22 49 29 98 15 103 -6 2 -11 -7 -12 -18z"/>
<path d="M2417 2124 c-68 -46 -96 -83 -31 -44 19 12 38 19 42 16 3 -4 1 -27
-6 -51 -14 -54 -15 -78 -3 -71 5 3 12 26 15 51 l7 45 40 -2 c26 -1 46 5 57 16
15 15 15 19 2 43 -27 46 -49 46 -123 -3z m103 1 c31 -37 -30 -64 -63 -27 -13
14 -14 21 -5 30 17 17 53 15 68 -3z"/>
<path d="M288 2023 c59 -69 92 -100 92 -87 0 5 -7 20 -16 32 -9 13 -13 31 -9
42 5 17 12 19 48 14 66 -10 33 11 -56 35 -113 31 -116 29 -59 -36z m48 16 c3
-5 2 -14 -1 -20 -7 -10 -45 16 -45 32 0 9 39 -1 46 -12z"/>
<path d="M2505 1993 c-79 -40 -80 -41 -73 -48 3 -3 35 8 72 25 38 16 70 30 73
30 2 0 -5 -12 -16 -26 -28 -36 -27 -41 17 -49 l37 -7 -67 -34 c-38 -19 -68
-39 -68 -45 0 -6 3 -9 8 -7 76 35 171 91 167 98 -3 6 -21 10 -39 10 -44 0 -49
8 -26 40 43 61 16 65 -85 13z"/>
<path d="M155 1930 c-15 -46 70 -120 138 -120 28 0 57 32 57 62 0 22 -37 61
-51 53 -5 -4 1 -14 13 -25 20 -15 21 -21 10 -44 -7 -16 -20 -26 -32 -26 -34 0
-100 39 -113 67 -9 21 -8 27 8 39 18 14 18 14 -2 14 -13 0 -24 -8 -28 -20z"/>
<path d="M117 1810 c-19 -53 -25 -80 -17 -85 5 -3 11 4 15 15 4 13 13 19 23
16 108 -30 132 -41 132 -58 0 -32 16 -19 27 22 10 40 0 68 -12 31 -6 -19 -7
-19 -77 3 -60 18 -73 26 -79 46 -4 18 -8 21 -12 10z"/>
<path d="M2500 1800 c0 -5 13 -10 30 -10 20 0 33 -7 41 -21 10 -19 7 -25 -17
-44 -16 -13 -26 -26 -23 -29 7 -8 169 93 169 104 0 4 -45 8 -100 9 -64 1 -100
-2 -100 -9z m130 -29 c-26 -21 -40 -19 -40 5 0 9 11 14 33 14 l32 0 -25 -19z"/>
<path d="M73 1650 c-10 -49 -1 -80 12 -40 7 23 17 24 108 6 37 -7 70 -10 72
-5 3 4 -21 13 -52 19 -104 21 -118 26 -118 42 0 38 -13 25 -22 -22z"/>
<path d="M2613 1692 c-84 -25 -83 -128 1 -121 17 2 37 0 44 -5 8 -5 12 2 12
23 0 33 -14 42 -24 15 -9 -24 -70 -15 -74 12 -7 47 104 86 142 49 13 -13 14
-20 5 -31 -13 -16 -6 -30 10 -19 19 11 12 53 -11 69 -23 16 -65 19 -105 8z"/>
<path d="M0 1544 c0 -5 7 -18 15 -28 12 -16 15 -17 15 -4 0 8 -7 21 -15 28 -8
7 -15 9 -15 4z"/>
<path d="M185 1523 c-11 -2 -44 -9 -72 -14 -29 -6 -53 -14 -53 -19 0 -4 19
-16 43 -25 119 -48 137 -54 137 -45 0 6 -11 15 -25 20 -48 18 -40 70 11 70 13
0 24 5 24 10 0 10 -28 11 -65 3z m-21 -31 c11 -18 -9 -29 -34 -20 -20 7 -22
11 -10 18 18 12 37 13 44 2z"/>
<path d="M2613 1523 c-43 -4 -43 -5 -43 -43 0 -21 5 -42 10 -45 6 -4 10 8 10
28 0 36 12 47 51 47 12 0 19 -7 19 -20 0 -11 5 -20 10 -20 6 0 10 9 10 20 0
16 7 20 35 20 33 0 35 -2 35 -35 0 -19 5 -35 10 -35 11 0 14 49 4 74 -6 16
-44 18 -151 9z"/>
<path d="M2570 1401 c0 -7 24 -11 68 -11 82 0 106 -12 63 -30 -38 -15 -39 -23
-3 -49 l27 -20 -77 -1 c-45 0 -78 -4 -78 -10 0 -13 187 -13 195 0 3 5 -10 19
-29 31 -40 24 -40 31 4 49 50 21 38 40 -24 40 -29 0 -74 3 -100 6 -31 5 -46 3
-46 -5z"/>
<path d="M198 1354 l-36 -37 -27 22 c-15 11 -35 21 -44 21 -40 0 -55 -53 -23
-87 15 -16 28 -18 100 -15 82 4 118 22 42 22 -51 0 -52 17 -4 58 20 17 34 36
32 42 -1 5 -20 -6 -40 -26z m-70 -26 c5 -7 12 -22 14 -33 2 -16 -3 -20 -26
-20 -32 0 -53 23 -43 49 8 19 40 21 55 4z"/>
<path d="M60 1190 c-23 -23 -26 -49 -8 -73 12 -16 19 -16 98 -2 47 8 86 15 88
15 1 0 2 4 2 8 0 4 -15 6 -34 4 -28 -3 -35 0 -41 17 -16 52 -69 67 -105 31z
m82 -25 c14 -31 11 -35 -38 -38 -30 -1 -39 2 -42 16 -6 31 6 47 38 47 23 0 33
-6 42 -25z"/>
<path d="M2655 1037 c-17 -41 -19 -67 -6 -67 11 0 36 88 28 97 -4 3 -14 -10
-22 -30z"/>
<path d="M240 800 c0 -6 10 -30 22 -53 14 -27 23 -36 25 -26 2 9 -6 33 -18 53
-22 37 -29 44 -29 26z"/>
<path d="M561 474 c-34 -41 -61 -79 -61 -84 0 -13 51 -50 69 -50 12 1 8 7 -11
23 -33 27 -34 34 -8 66 17 19 23 21 35 11 20 -16 32 -5 16 14 -10 12 -9 20 4
40 21 31 19 31 55 5 l29 -22 -48 -71 c-63 -93 -64 -96 -52 -96 6 0 28 27 51
59 51 76 59 81 53 31 -6 -45 1 -49 49 -24 l31 16 -23 -39 c-13 -21 -32 -50
-42 -65 -19 -27 -23 -48 -10 -48 4 1 31 39 59 86 56 91 55 111 -6 80 -40 -21
-40 -22 -34 23 5 36 2 42 -32 73 -61 54 -58 54 -124 -28z"/>
<path d="M2167 524 c-7 -7 84 -194 95 -194 12 0 10 18 -7 49 -13 26 -13 30 5
46 17 16 21 16 42 1 24 -17 53 -22 44 -7 -3 4 -32 24 -63 43 -32 19 -70 42
-84 51 -14 9 -28 14 -32 11z m76 -58 c15 -12 16 -15 2 -26 -18 -15 -20 -13
-29 18 -8 25 1 28 27 8z"/>
<path d="M2064 445 c-27 -24 -34 -34 -22 -35 9 0 20 5 24 11 7 12 29 -12 80
-83 22 -31 24 -40 14 -53 -23 -28 -1 -28 35 -1 37 29 49 54 16 37 -16 -9 -26
-1 -66 51 -41 51 -46 63 -37 79 21 32 -4 29 -44 -6z"/>
<path d="M1961 374 c-12 -15 -21 -29 -21 -33 1 -15 87 -161 92 -155 4 3 -1 21
-9 40 -9 19 -13 37 -9 41 4 4 29 0 55 -10 27 -9 55 -17 62 -17 22 0 -3 15 -54
34 -35 13 -46 21 -38 29 15 15 14 70 -1 85 -20 20 -55 13 -77 -14z m65 -9 c9
-23 -4 -62 -23 -69 -19 -8 -33 9 -33 40 0 37 44 61 56 29z"/>
<path d="M909 320 c-36 -91 -42 -126 -23 -145 22 -21 41 -19 70 10 27 27 64
106 64 136 0 28 -16 15 -23 -18 -3 -16 -20 -50 -37 -76 -57 -90 -86 -36 -39
73 11 27 19 57 17 67 -2 11 -13 -7 -29 -47z"/>
<path d="M1868 339 c-43 -22 -49 -34 -14 -25 21 5 27 -2 59 -74 20 -44 41 -80
47 -80 14 0 13 4 -19 68 -43 85 -46 101 -24 117 28 22 -5 18 -49 -6z"/>
<path d="M1780 195 c0 -59 4 -105 9 -105 6 0 11 17 13 37 4 49 32 56 63 16 13
-15 26 -25 30 -22 6 6 -101 179 -111 179 -2 0 -4 -47 -4 -105z m50 4 c0 -4 -7
-10 -15 -13 -19 -7 -30 17 -20 42 6 16 7 16 21 -2 8 -11 14 -23 14 -27z"/>
<path d="M1033 282 c-7 -4 -22 -39 -33 -77 -12 -39 -23 -75 -25 -82 -2 -7 0
-15 5 -18 5 -3 14 13 20 35 14 52 28 48 58 -16 27 -56 30 -59 37 -52 3 3 -4
27 -17 53 -21 43 -21 47 -6 56 31 17 48 40 48 64 0 36 -54 58 -87 37z m66 -26
c16 -20 -19 -56 -54 -56 -29 0 -32 16 -9 48 17 25 46 29 63 8z"/>
<path d="M1658 268 c-40 -11 -51 -28 -18 -28 20 0 32 -30 46 -117 5 -36 4 -43
-10 -43 -9 0 -16 -5 -16 -11 0 -8 14 -9 43 -5 50 8 74 26 34 26 -15 0 -27 2
-27 4 0 3 -7 37 -15 77 -14 65 -14 74 0 81 15 9 21 29 8 27 -5 -1 -25 -6 -45
-11z"/>
<path d="M1151 237 c-17 -21 -32 -114 -22 -140 20 -53 67 -58 97 -11 21 31 24
125 5 147 -16 20 -64 22 -80 4z m69 -16 c21 -41 4 -134 -28 -146 -21 -8 -52
28 -52 59 0 80 53 137 80 87z"/>
<path d="M1507 243 c-4 -3 -34 -5 -66 -4 l-60 2 6 -103 c3 -57 7 -105 9 -106
6 -8 84 10 84 19 0 6 -15 7 -35 3 l-35 -6 0 40 c0 32 4 41 23 47 l22 8 -21 4
c-15 3 -23 13 -26 34 -4 26 -1 32 20 40 50 19 56 10 67 -86 8 -74 13 -90 28
-93 27 -5 63 6 81 24 21 21 21 98 -1 135 -20 33 -79 60 -96 42z m55 -25 c27
-23 48 -62 48 -90 0 -34 -32 -68 -64 -68 -19 0 -24 6 -30 37 -8 50 -8 118 1
126 10 11 28 8 45 -5z"/>
<path d="M1267 233 c-11 -11 -8 -195 3 -188 6 3 10 19 10 35 0 25 5 30 35 36
81 15 71 124 -12 124 -16 0 -33 -3 -36 -7z m81 -51 c3 -27 -1 -34 -23 -42 -36
-14 -45 -6 -45 41 0 39 1 40 33 37 28 -3 32 -7 35 -36z"/>
</g>
</svg>
